<svg xmlns="http://www.w3.org/2000/svg" xmlns:xlink="http://www.w3.org/1999/xlink" version="1.1" x="0px" y="0px" viewBox="0 0 100 125" style="enable-background:new 0 0 100 100;" xml:space="preserve"><path d="M76.5322266,21.9560547H63.1618652l4.8303223-10.5390625c0.2304688-0.5019531,0.0097656-1.0957031-0.4921875-1.3261719  c-0.5048828-0.2294922-1.0957031-0.0087891-1.3261719,0.4921875l-5.2125244,11.3730469H23.4677734  c-0.3212891,0-0.6230469,0.1542969-0.8105469,0.4150391c-0.1884766,0.2597656-0.2392578,0.5947266-0.1386719,0.9003906  l4.9140625,14.8066406C30.5616455,47.5067749,39.1496582,53.9296265,49,54.3605957v24.1696167  c-2.4862061,0.2218018-4.5031738,1.3352661-5.3291016,2.9990845c-0.6591797,1.328125-1.7685547,1.5410156-3.5175781,1.7353516  c-0.5595703,0.0615234-1.1376953,0.125-1.6757812,0.265625c-1.8027344,0.4707031-3.0615234,2.1201172-3.0615234,4.0107422V89  c0,0.5527344,0.4472656,1,1,1h27.1679688c0.5527344,0,1-0.4472656,1-1v-1.4589844  c0-1.890625-1.2587891-3.5400391-3.0615234-4.0107422c-0.5205078-0.1357422-1.0703125-0.2050781-1.6025391-0.2724609  c-1.4970703-0.1894531-2.7900391-0.3535156-3.6210938-1.7861328C55.371582,79.8733521,53.3753662,78.7966309,51,78.5446167  V54.364502c9.9567871-0.3920288,18.6123047-6.8827515,21.7148438-16.427002l4.7685547-14.671875  c0.0986328-0.3046875,0.0458984-0.6386719-0.1425781-0.8974609C77.1533203,22.109375,76.8525391,21.9560547,76.5322266,21.9560547z   M54.5683594,82.4755859c1.328125,2.2880859,3.4199219,2.5537109,5.1005859,2.7666016  c0.4902344,0.0615234,0.953125,0.1201172,1.3476562,0.2236328c0.9228516,0.2402344,1.5673828,1.09375,1.5673828,2.0751953V88  H37.4160156v-0.4589844c0-0.9814453,0.6445312-1.8349609,1.5673828-2.0751953  c0.3974609-0.1035156,0.8789062-0.1572266,1.3896484-0.2138672c1.6445312-0.1816406,3.8964844-0.4306641,5.0888672-2.8339844  c0.5527344-1.1113281,2.1894531-1.8710938,4.1699219-1.9355469C51.8457031,80.4111328,53.8359375,81.2119141,54.5683594,82.4755859z   M70.8125,37.3183594c-2.9326172,9.0224609-11.2763672,15.0839844-20.7617188,15.0839844  c-9.4248047,0-17.7509766-6.0097656-20.7197266-14.9550781l-4.4775391-13.4912109h35.1911621L58.3630371,27.625H29.7705078  c-0.5527344,0-1,0.4472656-1,1s0.4472656,1,1,1h27.6760254l-1.5695801,3.4244995  c-2.1862793-0.807373-4.5690918-0.4689331-6.1337891,1.0950317c-2.2578125,2.2597656-1.9667969,6.2246094,0.6484375,8.8388672  c0.2073975,0.2075195,0.425293,0.3959961,0.6481934,0.5741577l-1.682373,3.6709595  c-0.2304688,0.5029297-0.0097656,1.0957031,0.4921875,1.3261719c0.1357422,0.0615234,0.2773438,0.0908203,0.4160156,0.0908203  c0.3789062,0,0.7421875-0.2167969,0.9101562-0.5830078l1.5883789-3.4657593  c0.8619385,0.3682251,1.7633057,0.555603,2.6401367,0.555603c1.4355469,0,2.8056641-0.5,3.8261719-1.5205078  c2.2578125-2.2578125,1.9677734-6.2236328-0.6484375-8.8388672c-0.2966309-0.2964478-0.6123047-0.5588379-0.9390869-0.7952271  L59.6470947,29.625h10.5823975c0.5527344,0,1-0.4472656,1-1s-0.4472656-1-1-1h-9.6657715l1.6815186-3.6689453h12.9100342  L70.8125,37.3183594z M54.0693359,39.3935547c0.1357422,0.0615234,0.2773438,0.0908203,0.4160156,0.0908203  c0.3789062,0,0.7421875-0.2158203,0.9101562-0.5830078l1.3829346-3.0174561  c0.1296387,0.1087036,0.2669678,0.2006226,0.3895264,0.3231201c1.8359375,1.8359375,2.1269531,4.5322266,0.6484375,6.0107422  c-1.4775391,1.4775391-4.1757812,1.1865234-6.0107422-0.6484375c-1.8359375-1.8349609-2.1269531-4.53125-0.6484375-6.0107422  c0.6347656-0.6347656,1.4941406-0.9433594,2.4140625-0.9433594c0.4797363,0,0.9736328,0.1082764,1.4626465,0.2736816  l-1.4567871,3.1784668C53.3466797,38.5693359,53.5673828,39.1630859,54.0693359,39.3935547z"/></svg>