<svg xmlns="http://www.w3.org/2000/svg" xmlns:xlink="http://www.w3.org/1999/xlink" version="1.1" x="0px" y="0px" viewBox="0 0 100 125" style="enable-background:new 0 0 100 100;" xml:space="preserve"><path d="M60.1665039,21.2763672c0-0.5527344-0.4477539-1-1-1H40.8334961c-0.5522461,0-1,0.4472656-1,1s0.4477539,1,1,1h18.3330078  C59.71875,22.2763672,60.1665039,21.8291016,60.1665039,21.2763672z"/><path d="M62.9555664,63.6376953l2.465332-52.5908203c0.0126953-0.2734375-0.0869141-0.5390625-0.2753906-0.7373047  C64.956543,10.1123047,64.6953125,10,64.421875,10h-28.84375c-0.2734375,0-0.534668,0.1123047-0.7236328,0.3095703  c-0.1884766,0.1982422-0.2880859,0.4638672-0.2753906,0.7373047l2.465332,52.5908203  C37.3538208,70.2324219,42.5222168,75.4576416,49,75.9511719v2.5791016c-2.4868164,0.22229-4.503418,1.3356934-5.3295898,2.9990234  c-0.6586914,1.328125-1.7685547,1.5410156-3.5175781,1.7353516c-0.5585938,0.0615234-1.1367188,0.125-1.6748047,0.265625  c-1.8027344,0.4707031-3.0620117,2.1201172-3.0620117,4.0107422V89c0,0.5527344,0.4477539,1,1,1h27.1679688  c0.5522461,0,1-0.4472656,1-1v-1.4589844c0-1.890625-1.2592773-3.5400391-3.0620117-4.0107422  c-0.5205078-0.1357422-1.0703125-0.2050781-1.6020508-0.2724609c-1.4970703-0.1894531-2.7905273-0.3535156-3.621582-1.7861328  C55.3718872,79.8747559,53.3671875,78.8000488,51,78.5461426v-2.5949707  C57.4777832,75.4576416,62.6461792,70.2324219,62.9555664,63.6376953z M39.0424805,63.5439453L36.6259766,12h26.7480469  l-2.4165039,51.5439453C60.6826172,69.4072266,55.8696289,74,50,74S39.3173828,69.4072266,39.0424805,63.5439453z   M54.5688477,82.4755859c1.3276367,2.2880859,3.4189453,2.5537109,5.0996094,2.7666016  c0.4902344,0.0615234,0.9536133,0.1201172,1.3486328,0.2236328c0.9223633,0.2402344,1.5668945,1.09375,1.5668945,2.0751953V88  H37.4160156v-0.4589844c0-0.9814453,0.6445312-1.8349609,1.5668945-2.0751953  c0.3974609-0.1035156,0.8798828-0.1572266,1.3901367-0.2138672c1.6445312-0.1816406,3.8969727-0.4306641,5.0888672-2.8339844  c0.5522461-1.1113281,2.1884766-1.8710938,4.1689453-1.9355469C51.8515625,80.4033203,53.8354492,81.2109375,54.5688477,82.4755859z  "/><text x="0" y="115" fill="#000000" font-size="5px" font-weight="bold" font-family="'Helvetica Neue', Helvetica, Arial-Unicode, Arial, Sans-serif">Created by Made by Made</text><text x="0" y="120" fill="#000000" font-size="5px" font-weight="bold" font-family="'Helvetica Neue', Helvetica, Arial-Unicode, Arial, Sans-serif">from the Noun Project</text></svg>