<svg xmlns="http://www.w3.org/2000/svg" xmlns:xlink="http://www.w3.org/1999/xlink" version="1.1" x="0px" y="0px" viewBox="0 0 100 125" enable-background="new 0 0 100 100" xml:space="preserve"><path d="M72.7,17.2c0-0.9-0.7-1.6-1.6-1.6H28.9c-0.9,0-1.6,0.7-1.6,1.6c0,30.2,16.6,37.1,21.1,37.3c0,9.2-0.7,17.7-1.4,19.9  c-0.8,2.6-3.6,3.3-7.4,4.1c-3,0.6-6.5,1.2-6.5,4.5c0,0.9,0.7,1.6,1.6,1.6h30.6h0c0.9,0,1.6-0.7,1.6-1.6c0-0.1,0-0.1,0-0.2  c-0.1-3-3.5-3.7-6.5-4.3c-3.8-0.7-6.6-1.5-7.4-4.1c-0.7-2.2-1.4-10.6-1.4-19.9C56.1,54.3,72.7,47.4,72.7,17.2z M58.8,81.3H41.2  c3.4-0.7,7.5-1.8,8.8-5.9C51.3,79.4,55.4,80.6,58.8,81.3z M51.4,51.3h-2.8c-2.9,0-17.6-5.7-18.2-32.5h39.1  C69,45.6,54.3,51.3,51.4,51.3z"/></svg>