<svg xmlns="http://www.w3.org/2000/svg" viewBox="0 0 48 60" x="0px" y="0px"><title>Medley vol.1</title><g data-name="Layer 6"><path d="M35.09668,21.17578V4.53516a.99974.99974,0,0,0-1-1H13.90332a.99974.99974,0,0,0-1,1V21.17578A11.10754,11.10754,0,0,0,23,32.2218v10.243H13.90332a1,1,0,0,0,0,2H34.09668a1,1,0,0,0,0-2H25V32.2218A11.10754,11.10754,0,0,0,35.09668,21.17578Zm-20.19336,0V5.53516H33.09668V21.17578a9.09668,9.09668,0,1,1-18.19336,0Z"/></g><text x="0" y="63" fill="#000000" font-size="5px" font-weight="bold" font-family="'Helvetica Neue', Helvetica, Arial-Unicode, Arial, Sans-serif">Created by Fahmi Ramdani</text><text x="0" y="68" fill="#000000" font-size="5px" font-weight="bold" font-family="'Helvetica Neue', Helvetica, Arial-Unicode, Arial, Sans-serif">from the Noun Project</text></svg>