<svg xmlns="http://www.w3.org/2000/svg" xmlns:xlink="http://www.w3.org/1999/xlink" version="1.1" x="0px" y="0px" viewBox="0 0 100 125" style="enable-background:new 0 0 100 100;" xml:space="preserve"><path d="M55.7000351,9.0714512c0.0278664,0,0.0561981-0.0023222,0.0845299-0.007431  c0.3186111-0.057127,0.6214294-0.1188974,0.9061317-0.1843843c0.255909-0.0585203,0.4156799-0.3135004,0.3571587-0.5698738  c-0.0589828-0.255909-0.3153572-0.4161429-0.5698738-0.3571582c-0.270771,0.0617709-0.5577965,0.1207557-0.8615456,0.175096  c-0.2582321,0.0464439-0.4305382,0.2935286-0.3840942,0.5522242C55.2736778,8.9098244,55.4738503,9.0714512,55.7000351,9.0714512z"/><path d="M42.7513161,8.9632359c1.8457031,0.3813095,4.2529182,0.5917025,6.7781067,0.5917025  c1.0858727,0,2.1564178-0.0390129,3.1809807-0.1156464c0.2619476-0.0195074,0.4584084-0.2475491,0.4389038-0.5094967  c-0.019043-0.2619467-0.2512665-0.4542265-0.5094986-0.4389C51.6380005,8.565671,50.5916061,8.603755,49.5294228,8.603755  c-2.4624863,0-4.8014297-0.2029619-6.5858269-0.572196c-0.2573051-0.053411-0.5090332,0.1119318-0.5619812,0.3696985  C42.3286705,8.6580954,42.4940109,8.9098244,42.7513161,8.9632359z"/><path d="M54.6285629,54.6520691c3.5599709-3.2116356,5.6016693-7.8031387,5.6016693-12.5966721V4.7084565  c0-0.5159984-0.5159988-3.0913448-10.7008095-3.0913448S38.8286133,4.1924582,38.8286133,4.7084565V42.055397  c0,4.7939987,2.0416985,9.3850365,5.6016693,12.5966721c1.5781822,1.4230576,2.483387,3.4582558,2.483387,5.5835533v27.9238167  c0,1.9111938-1.0408211,3.6700439-2.7165375,4.5896454l-2.9459763,1.6176605  c-0.6641541,0.3650589-1.0440712,1.0877304-0.9674377,1.8415222c0.0766335,0.7542648,0.5940247,1.3863678,1.3185616,1.6102371  c2.5929947,0.8006973,5.2598343,1.2015152,7.9271431,1.2010498c2.667305,0,5.3346138-0.4003525,7.9276085-1.2010498  c0.7240715-0.2243271,1.2414627-0.8559723,1.3176308-1.6102371c0.0766335-0.7537918-0.3032837-1.4769287-0.9674377-1.8415222  l-2.9464378-1.6176605c-1.6747894-0.9196014-2.7156105-2.6779861-2.7156105-4.5896454V60.2356224  C52.1451759,58.1103249,53.0503769,56.0751266,54.6285629,54.6520691z M49.5294228,3.5194776  c4.6384087,0,7.5713806,0.6924875,8.5429993,1.1889789c-0.9716187,0.4964914-3.9045906,1.1889787-8.5429993,1.1889787  s-7.5713806-0.6924872-8.5429993-1.1889787C41.9580421,4.2119651,44.8910103,3.5194776,49.5294228,3.5194776z   M53.9453659,94.4164429l2.9501534,1.5842209c-4.8181534,1.4894714-9.9121819,1.4894714-14.7284775,0.0334396l2.9455109-1.6176605  c2.2846031-1.25354,3.7034836-3.651001,3.7034836-6.2570038V60.2356224c0-2.6626625-1.1341743-5.2129288-3.1113167-6.9963951  c-3.1610107-2.8512268-4.9737396-6.9276581-4.9737396-11.1838303V6.6184859  c1.4852371,0.6376829,4.1200905,1.1813154,8.7984428,1.1813154s7.3132057-0.5436325,8.7984428-1.1813154V42.055397  c0,4.2561722-1.8127289,8.3326035-4.9732742,11.1838303c-1.9776077,1.7830048-3.1117821,4.333271-3.1117821,6.9963951v27.9238167  C50.2428093,90.7654419,51.6616898,93.1633682,53.9453659,94.4164429z"/><path d="M57.5350571,43.608036V16.8360405c0-2.2019329-5.5984154-2.4397287-8.0056343-2.4397287  s-8.0060997,0.2377958-8.0060997,2.4397287V43.608036c0,4.414547,3.5915527,8.0056343,8.0060997,8.0056343  S57.5350571,48.022583,57.5350571,43.608036z M49.5294228,16.2986774c2.4922104,0,4.2965775,0.2670555,5.3155708,0.5373631  c-1.0189934,0.2703075-2.8233604,0.5373631-5.3155708,0.5373631s-4.2970428-0.2670555-5.3160362-0.5373631  C45.2323799,16.565733,47.0372124,16.2986774,49.5294228,16.2986774z M49.5294228,49.7113037  c-3.3658333,0-6.1037331-2.7379036-6.1037331-6.1032677V18.5767803c1.851799,0.6061001,4.6002083,0.698988,6.1037331,0.698988  c1.5034676,0,4.2515869-0.0928879,6.1032677-0.698988V43.608036C55.6326904,46.9734001,52.8947906,49.7113037,49.5294228,49.7113037  z"/><text x="0" y="115" fill="#000000" font-size="5px" font-weight="bold" font-family="'Helvetica Neue', Helvetica, Arial-Unicode, Arial, Sans-serif">Created by Nook Fulloption</text><text x="0" y="120" fill="#000000" font-size="5px" font-weight="bold" font-family="'Helvetica Neue', Helvetica, Arial-Unicode, Arial, Sans-serif">from the Noun Project</text></svg>