<svg xmlns="http://www.w3.org/2000/svg" xmlns:xlink="http://www.w3.org/1999/xlink" version="1.1" x="0px" y="0px" viewBox="0 0 100 125" style="enable-background:new 0 0 100 100;" xml:space="preserve"><path d="M49.6689453,21.7998047c-5.5561523,0-10.7851562,0.2514648-14.7241211,0.7080078  c-5.8012695,0.6723633-6.9360352,1.4941406-6.9360352,2.6865234v46.3095703c0,0.8549805,0.5063477,1.6274414,1.2895508,1.96875  c6.4736328,2.8198242,13.4208984,4.2290039,20.3706055,4.2290039c6.9477539,0,13.8979492-1.409668,20.3701172-4.2290039  c0.7836914-0.3413086,1.2900391-1.1137695,1.2900391-1.96875V25.1943359c0-1.1923828-1.1347656-2.0141602-6.9360352-2.6865234  C60.4541016,22.0512695,55.2250977,21.7998047,49.6689453,21.7998047z M69.3291016,64.7766724  c-12.5271606,5.2999268-26.7931519,5.2999268-39.3203125,0V26.9881592c1.0532227,0.3305054,2.6174316,0.6236572,4.9360352,0.8922119  c3.9394531,0.456543,9.168457,0.7080078,14.7241211,0.7080078s10.784668-0.2514648,14.7241211-0.7080078  c2.3186035-0.2685547,3.8828125-0.5617065,4.9360352-0.8922119V64.7766724z M69.2407227,71.6386719  c-12.4384766,5.4199219-26.7055664,5.4179688-39.144043,0c-0.0532227-0.0234375-0.0878906-0.0761719-0.0878906-0.1347656V66.934021  c6.2873535,2.5405273,12.9710693,3.8276978,19.6601562,3.8276978s13.3728027-1.2871704,19.6601562-3.8276978v4.5698853  C69.3291016,71.5625,69.2944336,71.6152344,69.2407227,71.6386719z M49.6689453,26.5883789  c-9.4472656,0-16.1181641-0.7143555-18.7143555-1.394043c2.5961914-0.6801758,9.2670898-1.3945312,18.7143555-1.3945312  s16.1181641,0.7143555,18.7143555,1.3945312C65.7871094,25.8740234,59.1162109,26.5883789,49.6689453,26.5883789z"/><path d="M62.671875,29.4438477c-0.2749023,0.0258789-0.4765625,0.2700195-0.4501953,0.5449219  c0.0244141,0.2587891,0.2421875,0.4526367,0.4970703,0.4526367c0.015625,0,0.0317383-0.0004883,0.0478516-0.0024414  c0.6010742-0.0566406,1.1743164-0.1171875,1.7172852-0.1816406c0.2739258-0.0327148,0.4697266-0.28125,0.4375-0.5556641  c-0.0327148-0.2739258-0.2802734-0.4716797-0.5556641-0.4375C63.8305664,29.3276367,63.2651367,29.387207,62.671875,29.4438477z"/><path d="M58.7290039,29.7368164c-2.8286133,0.1611328-5.8769531,0.2426758-9.0600586,0.2426758  c-5.7119141,0-11.2133789-0.2783203-15.09375-0.7631836c-0.277832-0.0307617-0.5234375,0.1601562-0.5581055,0.434082  c-0.0341797,0.2739258,0.1601562,0.5239258,0.434082,0.5581055c3.9194336,0.4902344,9.4663086,0.7709961,15.2177734,0.7709961  c3.2021484,0,6.2695312-0.0820312,9.1166992-0.2446289c0.2758789-0.015625,0.4868164-0.2519531,0.4707031-0.5273438  C59.2402344,29.9316406,59.0019531,29.7143555,58.7290039,29.7368164z"/></svg>